# xmcd
#
# Track frame offsets:
#	150
#	13250
#	26582
#	35805
#	50430
#	61467
#	77337
#	87667
#	97640
#	107062
#	117545
#	133770
#	142440
#	153035
#	166027
#	174917
#	189887
#	201037
#
# Disc length: 2874 seconds
#
# Revision: 1
# Processed by: cddbd v1.5.2PL0 Copyright (c) Steve Scherf et al.
# Submitted via: audiograbber 1.83.01
#
DISCID=eb0b3812
DTITLE=Various Artist - GOLDEN GROUPS, DUOS AND INSTUMENTALS  CD 4
DYEAR=1900
DGENRE=Country
TTITLE0=THE GATLIN BROTHERS - HOUSTEN (MEANS I'M DAY CLOSER TO YOU)
TTITLE1=JOHNNY CASH - JUNE CARTER - IF I WERE A CARPENTER
TTITLE2=BOOTS RANDOLPH - YAKETY - SAX
TTITLE3=DOLLY PARTON and WILLIE NELSON - EVERYTHING IS BEAUTIFUL
TTITLE4=THE OAK RIDGE BOYS - TRYING TO LOVE TWO WOMAN
TTITLE5=PETERS and LEE - WELCOME HOME
TTITLE6=THE EVERLY BROTHERS - ALL I HAVE TO DO IS  DREAM
TTITLE7=BILLY VAUGHN - SAIL ALONG SILV'RY MOON
TTITLE8=GLEN CAMPBELL - BOBBIE GENTRY - LET IT BE ME
TTITLE9=THE STATLER BROTHERS - THANK GOD I'VE GOT YOU
TTITLE10=PETERS and LEE - DON'T STAY AWAY TOO LONG
TTITLE11=FLOYD CRAMER - ON THE REBOUND
TTITLE12=THE EVERLY BROTHERS - 'TIL I KISSED YOU
TTITLE13=TAMMY WYNETTE - DAVID HOUSTON - MY ELUSIVE DREAMS
TTITLE14=BILLY VAUGHN - WHEELS
TTITLE15=VINCE GILL - REBA MCENTIRE - THE HEART WON'T LIE
TTITLE16=THE KENDALLS - HEAVEN'S JUST A SIN AWAY
TTITLE17=LEE GREENWOOD - BARBARA MANDRELL - TO ME
EXTD=
EXTT0=
EXTT1=
EXTT2=
EXTT3=
EXTT4=
EXTT5=
EXTT6=
EXTT7=
EXTT8=
EXTT9=
EXTT10=
EXTT11=
EXTT12=
EXTT13=
EXTT14=
EXTT15=
EXTT16=
EXTT17=
PLAYORDER=
